<svg 
 xmlns="http://www.w3.org/2000/svg"
 xmlns:xlink="http://www.w3.org/1999/xlink"
 width="25px" height="25px">
<path fill-rule="evenodd"  fill="rgb(0, 76, 152)"
 d="M23.000,0.376 C23.000,0.376 16.153,1.939 10.000,7.376 C10.000,7.376 6.821,4.219 4.000,4.376 C1.179,4.532 -0.000,8.376 -0.000,8.376 C-0.000,8.376 5.052,8.772 6.000,10.376 C6.000,10.376 0.145,22.418 8.000,24.376 C17.023,26.624 25.000,17.376 25.000,17.376 C25.000,17.376 15.574,13.504 13.000,10.376 C13.000,10.376 18.502,3.677 23.000,0.376 ZM9.000,14.376 C9.000,14.376 14.672,19.884 22.000,18.376 C22.000,18.376 15.966,24.035 10.000,22.376 C6.508,21.405 9.000,14.376 9.000,14.376 Z"/>
</svg>